<svg width="108" height="37" viewBox="0 0 108 37"  fill="#92A0B4"  xmlns="http://www.w3.org/2000/svg">
<path d="M45.9596 18.9747C45.9596 24.1104 41.9929 27.8949 37.125 27.8949C32.2571 27.8949 28.2904 24.1104 28.2904 18.9747C28.2904 13.8027 32.2571 10.0544 37.125 10.0544C41.9929 10.0544 45.9596 13.8027 45.9596 18.9747ZM42.0922 18.9747C42.0922 15.7653 39.7932 13.5694 37.125 13.5694C34.4568 13.5694 32.1578 15.7653 32.1578 18.9747C32.1578 22.1518 34.4568 24.3799 37.125 24.3799C39.7932 24.3799 42.0922 22.1478 42.0922 18.9747Z" fill="#92A0B4"/>
<path d="M65.0184 18.9747C65.0184 24.1104 61.0518 27.8949 56.1838 27.8949C51.3159 27.8949 47.3493 24.1104 47.3493 18.9747C47.3493 13.8067 51.3159 10.0544 56.1838 10.0544C61.0518 10.0544 65.0184 13.8027 65.0184 18.9747ZM61.151 18.9747C61.151 15.7653 58.8521 13.5694 56.1838 13.5694C53.5156 13.5694 51.2166 15.7653 51.2166 18.9747C51.2166 22.1518 53.5156 24.3799 56.1838 24.3799C58.8521 24.3799 61.151 22.1478 61.151 18.9747Z" fill="#92A0B4"/>
<path d="M83.2831 10.5934V26.6079C83.2831 33.1955 79.4475 35.8861 74.9131 35.8861C70.6447 35.8861 68.0757 32.9944 67.1069 30.6297L70.474 29.21C71.0735 30.6618 72.5427 32.3751 74.9091 32.3751C77.8116 32.3751 79.6103 30.5613 79.6103 27.1468V25.8639H79.4753C78.6097 26.9457 76.9421 27.8909 74.8377 27.8909C70.4343 27.8909 66.4001 24.0059 66.4001 19.0068C66.4001 13.9716 70.4343 10.0544 74.8377 10.0544C76.9381 10.0544 78.6057 10.9996 79.4753 12.0492H79.6103V10.5974H83.2831V10.5934ZM79.8843 19.0068C79.8843 15.8659 77.8156 13.5694 75.1831 13.5694C72.5149 13.5694 70.2794 15.8659 70.2794 19.0068C70.2794 22.1156 72.5149 24.3799 75.1831 24.3799C77.8156 24.3799 79.8843 22.1156 79.8843 19.0068Z" fill="#92A0B4"/>
<path d="M89.3382 1.20654V27.3478H85.5662V1.20654H89.3382Z" fill="#92A0B4"/>
<path d="M104.037 21.9104L107.039 23.9374C106.07 25.3892 103.736 27.8907 99.7016 27.8907C94.6986 27.8907 90.9623 23.9736 90.9623 18.9705C90.9623 13.6658 94.7304 10.0503 99.2688 10.0503C103.839 10.0503 106.074 13.7342 106.805 15.725L107.206 16.7384L95.4332 21.6771C96.3345 23.4668 97.7361 24.3797 99.7016 24.3797C101.671 24.3797 103.037 23.3984 104.037 21.9104ZM94.7979 18.7011L102.668 15.3912C102.235 14.2771 100.932 13.5009 99.3998 13.5009C97.4343 13.5009 94.6986 15.2584 94.7979 18.7011Z" fill="#92A0B4"/>
<path d="M14.0121 16.654V12.8695H26.6029C26.726 13.5291 26.7895 14.3093 26.7895 15.1539C26.7895 17.9932 26.0232 21.5042 23.5535 24.0057C21.1513 26.5394 18.082 27.8907 14.0161 27.8907C6.47994 27.8907 0.142883 21.6731 0.142883 14.0398C0.142883 6.40657 6.47994 0.188965 14.0161 0.188965C18.1852 0.188965 21.1552 1.84592 23.3867 4.0056L20.7502 6.67603C19.1501 5.15581 16.9821 3.97342 14.0121 3.97342C8.50891 3.97342 4.2048 8.4657 4.2048 14.0398C4.2048 19.614 8.50891 24.1062 14.0121 24.1062C17.5817 24.1062 19.6146 22.6544 20.917 21.3353C21.9732 20.2655 22.668 18.7372 22.942 16.6499L14.0121 16.654Z" fill="#92A0B4"/>
</svg>
